<mxfile host="app.diagrams.net" modified="2021-03-12T01:24:31.402Z" agent="5.0 (Windows NT 10.0; Win64; x64) AppleWebKit/537.36 (KHTML, like Gecko) Chrome/89.0.4389.82 Safari/537.36" etag="L7EKaYppxw9m_plfwC2r" version="14.4.5" type="github">
  <diagram id="wZqmcExUdm-AMlnz-svR" name="Page-1">
    <mxGraphModel dx="380" dy="606" grid="1" gridSize="10" guides="1" tooltips="1" connect="1" arrows="1" fold="1" page="1" pageScale="1" pageWidth="850" pageHeight="1100" math="0" shadow="0">
      <root>
        <mxCell id="0" />
        <mxCell id="1" parent="0" />
        <mxCell id="tPtvg7r7l6w8eXV7Xtgh-3" value="" style="group" vertex="1" connectable="0" parent="1">
          <mxGeometry x="160" y="80" width="60" height="40" as="geometry" />
        </mxCell>
        <mxCell id="tPtvg7r7l6w8eXV7Xtgh-1" value="7" style="ellipse;whiteSpace=wrap;html=1;aspect=fixed;" vertex="1" parent="tPtvg7r7l6w8eXV7Xtgh-3">
          <mxGeometry width="40" height="40" as="geometry" />
        </mxCell>
        <mxCell id="tPtvg7r7l6w8eXV7Xtgh-2" value="1" style="text;html=1;align=center;verticalAlign=middle;resizable=0;points=[];autosize=1;" vertex="1" parent="tPtvg7r7l6w8eXV7Xtgh-3">
          <mxGeometry x="40" y="10" width="20" height="20" as="geometry" />
        </mxCell>
        <mxCell id="tPtvg7r7l6w8eXV7Xtgh-4" value="" style="group" vertex="1" connectable="0" parent="1">
          <mxGeometry x="80" y="138" width="60" height="40" as="geometry" />
        </mxCell>
        <mxCell id="tPtvg7r7l6w8eXV7Xtgh-5" value="5" style="ellipse;whiteSpace=wrap;html=1;aspect=fixed;" vertex="1" parent="tPtvg7r7l6w8eXV7Xtgh-4">
          <mxGeometry width="40" height="40" as="geometry" />
        </mxCell>
        <mxCell id="tPtvg7r7l6w8eXV7Xtgh-6" value="2" style="text;html=1;align=center;verticalAlign=middle;resizable=0;points=[];autosize=1;" vertex="1" parent="tPtvg7r7l6w8eXV7Xtgh-4">
          <mxGeometry x="40" y="10" width="20" height="20" as="geometry" />
        </mxCell>
        <mxCell id="tPtvg7r7l6w8eXV7Xtgh-7" value="" style="group" vertex="1" connectable="0" parent="1">
          <mxGeometry x="240" y="138" width="60" height="40" as="geometry" />
        </mxCell>
        <mxCell id="tPtvg7r7l6w8eXV7Xtgh-8" value="6" style="ellipse;whiteSpace=wrap;html=1;aspect=fixed;" vertex="1" parent="tPtvg7r7l6w8eXV7Xtgh-7">
          <mxGeometry width="40" height="40" as="geometry" />
        </mxCell>
        <mxCell id="tPtvg7r7l6w8eXV7Xtgh-9" value="3" style="text;html=1;align=center;verticalAlign=middle;resizable=0;points=[];autosize=1;" vertex="1" parent="tPtvg7r7l6w8eXV7Xtgh-7">
          <mxGeometry x="40" y="10" width="20" height="20" as="geometry" />
        </mxCell>
        <mxCell id="tPtvg7r7l6w8eXV7Xtgh-10" value="" style="group" vertex="1" connectable="0" parent="1">
          <mxGeometry x="40" y="200" width="60" height="40" as="geometry" />
        </mxCell>
        <mxCell id="tPtvg7r7l6w8eXV7Xtgh-11" value="4" style="ellipse;whiteSpace=wrap;html=1;aspect=fixed;" vertex="1" parent="tPtvg7r7l6w8eXV7Xtgh-10">
          <mxGeometry width="40" height="40" as="geometry" />
        </mxCell>
        <mxCell id="tPtvg7r7l6w8eXV7Xtgh-12" value="4" style="text;html=1;align=center;verticalAlign=middle;resizable=0;points=[];autosize=1;" vertex="1" parent="tPtvg7r7l6w8eXV7Xtgh-10">
          <mxGeometry x="40" y="10" width="20" height="20" as="geometry" />
        </mxCell>
        <mxCell id="tPtvg7r7l6w8eXV7Xtgh-13" value="" style="group" vertex="1" connectable="0" parent="1">
          <mxGeometry x="120" y="200" width="60" height="40" as="geometry" />
        </mxCell>
        <mxCell id="tPtvg7r7l6w8eXV7Xtgh-14" value="2" style="ellipse;whiteSpace=wrap;html=1;aspect=fixed;" vertex="1" parent="tPtvg7r7l6w8eXV7Xtgh-13">
          <mxGeometry width="40" height="40" as="geometry" />
        </mxCell>
        <mxCell id="tPtvg7r7l6w8eXV7Xtgh-15" value="5" style="text;html=1;align=center;verticalAlign=middle;resizable=0;points=[];autosize=1;" vertex="1" parent="tPtvg7r7l6w8eXV7Xtgh-13">
          <mxGeometry x="40" y="10" width="20" height="20" as="geometry" />
        </mxCell>
        <mxCell id="tPtvg7r7l6w8eXV7Xtgh-16" value="" style="group" vertex="1" connectable="0" parent="1">
          <mxGeometry x="200" y="200" width="60" height="40" as="geometry" />
        </mxCell>
        <mxCell id="tPtvg7r7l6w8eXV7Xtgh-17" value="1" style="ellipse;whiteSpace=wrap;html=1;aspect=fixed;" vertex="1" parent="tPtvg7r7l6w8eXV7Xtgh-16">
          <mxGeometry width="40" height="40" as="geometry" />
        </mxCell>
        <mxCell id="tPtvg7r7l6w8eXV7Xtgh-18" value="6" style="text;html=1;align=center;verticalAlign=middle;resizable=0;points=[];autosize=1;" vertex="1" parent="tPtvg7r7l6w8eXV7Xtgh-16">
          <mxGeometry x="40" y="10" width="20" height="20" as="geometry" />
        </mxCell>
        <mxCell id="tPtvg7r7l6w8eXV7Xtgh-19" value="" style="group" vertex="1" connectable="0" parent="1">
          <mxGeometry x="280" y="200" width="60" height="40" as="geometry" />
        </mxCell>
        <mxCell id="tPtvg7r7l6w8eXV7Xtgh-20" value="3" style="ellipse;whiteSpace=wrap;html=1;aspect=fixed;" vertex="1" parent="tPtvg7r7l6w8eXV7Xtgh-19">
          <mxGeometry width="40" height="40" as="geometry" />
        </mxCell>
        <mxCell id="tPtvg7r7l6w8eXV7Xtgh-21" value="7" style="text;html=1;align=center;verticalAlign=middle;resizable=0;points=[];autosize=1;" vertex="1" parent="tPtvg7r7l6w8eXV7Xtgh-19">
          <mxGeometry x="40" y="10" width="20" height="20" as="geometry" />
        </mxCell>
        <mxCell id="tPtvg7r7l6w8eXV7Xtgh-22" style="rounded=0;orthogonalLoop=1;jettySize=auto;html=1;exitX=0;exitY=1;exitDx=0;exitDy=0;endArrow=none;endFill=0;" edge="1" parent="1" source="tPtvg7r7l6w8eXV7Xtgh-1" target="tPtvg7r7l6w8eXV7Xtgh-5">
          <mxGeometry relative="1" as="geometry" />
        </mxCell>
        <mxCell id="tPtvg7r7l6w8eXV7Xtgh-23" style="edgeStyle=none;rounded=0;orthogonalLoop=1;jettySize=auto;html=1;exitX=1;exitY=1;exitDx=0;exitDy=0;endArrow=none;endFill=0;" edge="1" parent="1" source="tPtvg7r7l6w8eXV7Xtgh-1" target="tPtvg7r7l6w8eXV7Xtgh-8">
          <mxGeometry relative="1" as="geometry" />
        </mxCell>
        <mxCell id="tPtvg7r7l6w8eXV7Xtgh-24" style="edgeStyle=none;rounded=0;orthogonalLoop=1;jettySize=auto;html=1;exitX=0;exitY=1;exitDx=0;exitDy=0;entryX=0.5;entryY=0;entryDx=0;entryDy=0;endArrow=none;endFill=0;" edge="1" parent="1" source="tPtvg7r7l6w8eXV7Xtgh-5" target="tPtvg7r7l6w8eXV7Xtgh-11">
          <mxGeometry relative="1" as="geometry" />
        </mxCell>
        <mxCell id="tPtvg7r7l6w8eXV7Xtgh-25" style="edgeStyle=none;rounded=0;orthogonalLoop=1;jettySize=auto;html=1;exitX=1;exitY=1;exitDx=0;exitDy=0;entryX=0.5;entryY=0;entryDx=0;entryDy=0;endArrow=none;endFill=0;" edge="1" parent="1" source="tPtvg7r7l6w8eXV7Xtgh-5" target="tPtvg7r7l6w8eXV7Xtgh-14">
          <mxGeometry relative="1" as="geometry" />
        </mxCell>
        <mxCell id="tPtvg7r7l6w8eXV7Xtgh-26" style="edgeStyle=none;rounded=0;orthogonalLoop=1;jettySize=auto;html=1;exitX=0;exitY=1;exitDx=0;exitDy=0;entryX=0.5;entryY=0;entryDx=0;entryDy=0;endArrow=none;endFill=0;" edge="1" parent="1" source="tPtvg7r7l6w8eXV7Xtgh-8" target="tPtvg7r7l6w8eXV7Xtgh-17">
          <mxGeometry relative="1" as="geometry" />
        </mxCell>
        <mxCell id="tPtvg7r7l6w8eXV7Xtgh-27" style="edgeStyle=none;rounded=0;orthogonalLoop=1;jettySize=auto;html=1;exitX=1;exitY=1;exitDx=0;exitDy=0;entryX=0.5;entryY=0;entryDx=0;entryDy=0;endArrow=none;endFill=0;" edge="1" parent="1" source="tPtvg7r7l6w8eXV7Xtgh-8" target="tPtvg7r7l6w8eXV7Xtgh-20">
          <mxGeometry relative="1" as="geometry" />
        </mxCell>
        <mxCell id="tPtvg7r7l6w8eXV7Xtgh-30" value="" style="group" vertex="1" connectable="0" parent="1">
          <mxGeometry x="20" y="280" width="40" height="60" as="geometry" />
        </mxCell>
        <mxCell id="tPtvg7r7l6w8eXV7Xtgh-28" value="-" style="whiteSpace=wrap;html=1;aspect=fixed;" vertex="1" parent="tPtvg7r7l6w8eXV7Xtgh-30">
          <mxGeometry width="40" height="40" as="geometry" />
        </mxCell>
        <mxCell id="tPtvg7r7l6w8eXV7Xtgh-29" value="0" style="text;html=1;strokeColor=none;fillColor=none;align=center;verticalAlign=middle;whiteSpace=wrap;rounded=0;" vertex="1" parent="tPtvg7r7l6w8eXV7Xtgh-30">
          <mxGeometry y="40" width="40" height="20" as="geometry" />
        </mxCell>
        <mxCell id="tPtvg7r7l6w8eXV7Xtgh-31" value="" style="group" vertex="1" connectable="0" parent="1">
          <mxGeometry x="60" y="280" width="40" height="60" as="geometry" />
        </mxCell>
        <mxCell id="tPtvg7r7l6w8eXV7Xtgh-32" value="7" style="whiteSpace=wrap;html=1;aspect=fixed;" vertex="1" parent="tPtvg7r7l6w8eXV7Xtgh-31">
          <mxGeometry width="40" height="40" as="geometry" />
        </mxCell>
        <mxCell id="tPtvg7r7l6w8eXV7Xtgh-33" value="1" style="text;html=1;strokeColor=none;fillColor=none;align=center;verticalAlign=middle;whiteSpace=wrap;rounded=0;" vertex="1" parent="tPtvg7r7l6w8eXV7Xtgh-31">
          <mxGeometry y="40" width="40" height="20" as="geometry" />
        </mxCell>
        <mxCell id="tPtvg7r7l6w8eXV7Xtgh-34" value="" style="group" vertex="1" connectable="0" parent="1">
          <mxGeometry x="100" y="280" width="40" height="60" as="geometry" />
        </mxCell>
        <mxCell id="tPtvg7r7l6w8eXV7Xtgh-35" value="5" style="whiteSpace=wrap;html=1;aspect=fixed;" vertex="1" parent="tPtvg7r7l6w8eXV7Xtgh-34">
          <mxGeometry width="40" height="40" as="geometry" />
        </mxCell>
        <mxCell id="tPtvg7r7l6w8eXV7Xtgh-36" value="2" style="text;html=1;strokeColor=none;fillColor=none;align=center;verticalAlign=middle;whiteSpace=wrap;rounded=0;" vertex="1" parent="tPtvg7r7l6w8eXV7Xtgh-34">
          <mxGeometry y="40" width="40" height="20" as="geometry" />
        </mxCell>
        <mxCell id="tPtvg7r7l6w8eXV7Xtgh-37" value="" style="group" vertex="1" connectable="0" parent="1">
          <mxGeometry x="140" y="280" width="40" height="60" as="geometry" />
        </mxCell>
        <mxCell id="tPtvg7r7l6w8eXV7Xtgh-38" value="6" style="whiteSpace=wrap;html=1;aspect=fixed;" vertex="1" parent="tPtvg7r7l6w8eXV7Xtgh-37">
          <mxGeometry width="40" height="40" as="geometry" />
        </mxCell>
        <mxCell id="tPtvg7r7l6w8eXV7Xtgh-39" value="3" style="text;html=1;strokeColor=none;fillColor=none;align=center;verticalAlign=middle;whiteSpace=wrap;rounded=0;" vertex="1" parent="tPtvg7r7l6w8eXV7Xtgh-37">
          <mxGeometry y="40" width="40" height="20" as="geometry" />
        </mxCell>
        <mxCell id="tPtvg7r7l6w8eXV7Xtgh-40" value="" style="group" vertex="1" connectable="0" parent="1">
          <mxGeometry x="180" y="280" width="40" height="60" as="geometry" />
        </mxCell>
        <mxCell id="tPtvg7r7l6w8eXV7Xtgh-41" value="4" style="whiteSpace=wrap;html=1;aspect=fixed;" vertex="1" parent="tPtvg7r7l6w8eXV7Xtgh-40">
          <mxGeometry width="40" height="40" as="geometry" />
        </mxCell>
        <mxCell id="tPtvg7r7l6w8eXV7Xtgh-42" value="4" style="text;html=1;strokeColor=none;fillColor=none;align=center;verticalAlign=middle;whiteSpace=wrap;rounded=0;" vertex="1" parent="tPtvg7r7l6w8eXV7Xtgh-40">
          <mxGeometry y="40" width="40" height="20" as="geometry" />
        </mxCell>
        <mxCell id="tPtvg7r7l6w8eXV7Xtgh-43" value="" style="group" vertex="1" connectable="0" parent="1">
          <mxGeometry x="220" y="280" width="40" height="60" as="geometry" />
        </mxCell>
        <mxCell id="tPtvg7r7l6w8eXV7Xtgh-44" value="2" style="whiteSpace=wrap;html=1;aspect=fixed;" vertex="1" parent="tPtvg7r7l6w8eXV7Xtgh-43">
          <mxGeometry width="40" height="40" as="geometry" />
        </mxCell>
        <mxCell id="tPtvg7r7l6w8eXV7Xtgh-45" value="5" style="text;html=1;strokeColor=none;fillColor=none;align=center;verticalAlign=middle;whiteSpace=wrap;rounded=0;" vertex="1" parent="tPtvg7r7l6w8eXV7Xtgh-43">
          <mxGeometry y="40" width="40" height="20" as="geometry" />
        </mxCell>
        <mxCell id="tPtvg7r7l6w8eXV7Xtgh-46" value="" style="group" vertex="1" connectable="0" parent="1">
          <mxGeometry x="260" y="280" width="40" height="60" as="geometry" />
        </mxCell>
        <mxCell id="tPtvg7r7l6w8eXV7Xtgh-47" value="1" style="whiteSpace=wrap;html=1;aspect=fixed;" vertex="1" parent="tPtvg7r7l6w8eXV7Xtgh-46">
          <mxGeometry width="40" height="40" as="geometry" />
        </mxCell>
        <mxCell id="tPtvg7r7l6w8eXV7Xtgh-48" value="6" style="text;html=1;strokeColor=none;fillColor=none;align=center;verticalAlign=middle;whiteSpace=wrap;rounded=0;" vertex="1" parent="tPtvg7r7l6w8eXV7Xtgh-46">
          <mxGeometry y="40" width="40" height="20" as="geometry" />
        </mxCell>
        <mxCell id="tPtvg7r7l6w8eXV7Xtgh-49" value="" style="group" vertex="1" connectable="0" parent="1">
          <mxGeometry x="300" y="280" width="40" height="60" as="geometry" />
        </mxCell>
        <mxCell id="tPtvg7r7l6w8eXV7Xtgh-50" value="3" style="whiteSpace=wrap;html=1;aspect=fixed;" vertex="1" parent="tPtvg7r7l6w8eXV7Xtgh-49">
          <mxGeometry width="40" height="40" as="geometry" />
        </mxCell>
        <mxCell id="tPtvg7r7l6w8eXV7Xtgh-51" value="7" style="text;html=1;strokeColor=none;fillColor=none;align=center;verticalAlign=middle;whiteSpace=wrap;rounded=0;" vertex="1" parent="tPtvg7r7l6w8eXV7Xtgh-49">
          <mxGeometry y="40" width="40" height="20" as="geometry" />
        </mxCell>
      </root>
    </mxGraphModel>
  </diagram>
</mxfile>
